<svg xmlns="http://www.w3.org/2000/svg" id="Layer_1" viewBox="0 0 230 160"><style>.st0a{fill:#fff}.st1a{opacity:.8}.st1a,.st2,.st3{fill:#f52757}.st2{opacity:.7}.st3{opacity:.6}.st4{opacity:.68;fill:#1e88e5}.st5{opacity:.76}.st5,.st6,.st7{fill:#1e88e5}.st6{opacity:.84}.st7{opacity:.94}.st8{opacity:.65}.st8,.st9{fill:#f52757}.st1a0{fill:#1e88e5}.st1a1{opacity:.92}.st1a1,.st1a2{fill:#0d47a1}</style><path d="M93.1 4.3H49.4L5.7 80l43.7 75.7h43.7l65.6-113.6L180.6 80l-43.7 75.7h43.7L224.3 80 180.6 4.3h-43.7L71.3 117.9 49.4 80z" class="st0a"/><path d="M115 42.1l21.8-37.8 21.9 37.8z" class="st1a"/><path d="M115 42.1L136.8 80l21.9-37.9z" class="st2"/><path d="M93.1 80L115 42.1 136.8 80z" class="st3"/><path d="M49.4 4.3l21.9 37.8L93.1 4.3z" class="st4"/><path d="M27.6 42.1L49.4 4.3l21.9 37.8z" class="st5"/><path d="M27.6 42.1L49.4 80l21.9-37.9z" class="st6"/><path d="M5.7 80l21.9-37.9L49.4 80z" class="st7"/><path d="M93.1 80l21.9 37.9L136.8 80z" class="st8"/><path d="M71.3 117.9L93.1 80l21.9 37.9z" class="st2"/><path d="M71.3 117.9l21.8 37.8 21.9-37.8z" class="st1a"/><path d="M49.4 155.7l21.9-37.8 21.8 37.8z" class="st9"/><path d="M5.7 80l21.9 37.9L49.4 80z" class="st1a0"/><path d="M180.6 155.7l-21.9-37.8-21.8 37.8z" class="st4"/><path d="M202.4 117.9l-21.8 37.8-21.9-37.8z" class="st5"/><path d="M202.4 117.9L180.6 80l-21.9 37.9z" class="st6"/><path d="M224.3 80l-21.9 37.9L180.6 80z" class="st7"/><path d="M224.3 80l-21.9-37.9L180.6 80z" class="st1a0"/><path d="M71.3 117.9L49.4 80l-21.8 37.9z" class="st1a1"/><path d="M71.3 117.9l-21.9 37.8-21.8-37.8z" class="st1a2"/><path d="M136.8 4.3l21.9 37.8 21.9-37.8z" class="st9"/><path d="M202.4 42.1L180.6 4.3l-21.9 37.8z" class="st1a2"/><path d="M202.4 42.1L180.6 80l-21.9-37.9z" class="st1a1"/></svg>